HIERARCHY
ROOT hip
{
  OFFSET 253.4 77.5955 -92.5447
  CHANNELS 6 Xposition Yposition Zposition Zrotation Xrotation Yrotation
  JOINT abdomen
  {
    OFFSET 0 20.6881 -0.73152
    CHANNELS 3 Zrotation Xrotation Yrotation
    JOINT chest
    {
      OFFSET 0 11.7043 -0.48768
      CHANNELS 3 Zrotation Xrotation Yrotation
      JOINT neck
      {
        OFFSET 0 22.1894 -2.19456
        CHANNELS 3 Zrotation Xrotation Yrotation
        JOINT head
        {
          OFFSET -0.24384 7.07133 1.2192
          CHANNELS 3 Zrotation Xrotation Yrotation
          JOINT leftEye
          {
            OFFSET 4.14528 8.04674 8.04672
            CHANNELS 3 Zrotation Xrotation Yrotation
            End Site
            {
              OFFSET 1 0 0
            }
          }
          JOINT rightEye
          {
            OFFSET -3.6576 8.04674 8.04672
            CHANNELS 3 Zrotation Xrotation Yrotation
            End Site
            {
              OFFSET 1 0 0
            }
          }
        }
      }
      JOINT rCollar
      {
        OFFSET -2.68224 19.2634 -4.8768
        CHANNELS 3 Zrotation Xrotation Yrotation
        JOINT rShldr
        {
          OFFSET -8.77824 -1.95073 1.46304
          CHANNELS 3 Zrotation Xrotation Yrotation
          JOINT rForeArm
          {
            OFFSET -28.1742 -1.7115 0.48768
            CHANNELS 3 Zrotation Xrotation Yrotation
            JOINT rHand
            {
              OFFSET -22.5879 0.773209 7.07136
              CHANNELS 3 Zrotation Xrotation Yrotation
              JOINT rThumb1
              {
                OFFSET -1.2192 -0.487915 3.41376
                CHANNELS 3 Zrotation Xrotation Yrotation
                JOINT rThumb2
                {
                  OFFSET -3.37035 -0.52449 3.41376
                  CHANNELS 3 Zrotation Xrotation Yrotation
                  End Site
                  {
                    OFFSET -1.78271 -1.18214 1.43049
                  }
                }
              }
              JOINT rIndex1
              {
                OFFSET -7.75947 0.938293 5.60832
                CHANNELS 3 Zrotation Xrotation Yrotation
                JOINT rIndex2
                {
                  OFFSET -2.54057 -0.884171 1.56538
                  CHANNELS 3 Zrotation Xrotation Yrotation
                  End Site
                  {
                    OFFSET -1.62519 -0.234802 1.16502
                  }
                }
              }
              JOINT rMid1
              {
                OFFSET -8.24714 1.18213 3.41376
                CHANNELS 3 Zrotation Xrotation Yrotation
                JOINT rMid2
                {
                  OFFSET -3.10165 -0.590103 1.0647
                  CHANNELS 3 Zrotation Xrotation Yrotation
                  End Site
                  {
                    OFFSET -2.48547 -0.328903 0.83742
                  }
                }
              }
              JOINT rRing1
              {
                OFFSET -8.82822 0.546677 1.51678
                CHANNELS 3 Zrotation Xrotation Yrotation
                JOINT rRing2
                {
                  OFFSET -2.60934 -0.819778 -0.0198488
                  CHANNELS 3 Zrotation Xrotation Yrotation
                  End Site
                  {
                    OFFSET -2.33842 -0.294052 0.168128
                  }
                }
              }
              JOINT rPinky1
              {
                OFFSET -8.27202 -0.0477905 -0.4584
                CHANNELS 3 Zrotation Xrotation Yrotation
                JOINT rPinky2
                {
                  OFFSET -1.82734 -0.647385 -0.700984
                  CHANNELS 3 Zrotation Xrotation Yrotation
                  End Site
                  {
                    OFFSET -1.69225 -0.51767 -0.607171
                  }
                }
              }
            }
          }
        }
      }
      JOINT lCollar
      {
        OFFSET 2.68224 19.2634 -4.8768
        CHANNELS 3 Zrotation Xrotation Yrotation
        JOINT lShldr
        {
          OFFSET 8.77824 -1.95073 1.46304
          CHANNELS 3 Zrotation Xrotation Yrotation
          JOINT lForeArm
          {
            OFFSET 28.1742 -1.7115 0.48768
            CHANNELS 3 Zrotation Xrotation Yrotation
            JOINT lHand
            {
              OFFSET 22.5879 0.773209 7.07136
              CHANNELS 3 Zrotation Xrotation Yrotation
              JOINT lThumb1
              {
                OFFSET 1.2192 -0.487915 3.41376
                CHANNELS 3 Zrotation Xrotation Yrotation
                JOINT lThumb2
                {
                  OFFSET 3.37035 -0.52449 3.41376
                  CHANNELS 3 Zrotation Xrotation Yrotation
                  End Site
                  {
                    OFFSET 1.78271 -1.18214 1.43049
                  }
                }
              }
              JOINT lIndex1
              {
                OFFSET 7.75947 0.938293 5.60832
                CHANNELS 3 Zrotation Xrotation Yrotation
                JOINT lIndex2
                {
                  OFFSET 2.54057 -0.884171 1.56538
                  CHANNELS 3 Zrotation Xrotation Yrotation
                  End Site
                  {
                    OFFSET 1.62519 -0.234802 1.16502
                  }
                }
              }
              JOINT lMid1
              {
                OFFSET 8.24714 1.18213 3.41376
                CHANNELS 3 Zrotation Xrotation Yrotation
                JOINT lMid2
                {
                  OFFSET 3.10165 -0.590103 1.0647
                  CHANNELS 3 Zrotation Xrotation Yrotation
                  End Site
                  {
                    OFFSET 2.48547 -0.328903 0.83742
                  }
                }
              }
              JOINT lRing1
              {
                OFFSET 8.82822 0.546677 1.51678
                CHANNELS 3 Zrotation Xrotation Yrotation
                JOINT lRing2
                {
                  OFFSET 2.60934 -0.819778 -0.0198488
                  CHANNELS 3 Zrotation Xrotation Yrotation
                  End Site
                  {
                    OFFSET 2.33842 -0.294052 0.168128
                  }
                }
              }
              JOINT lPinky1
              {
                OFFSET 8.27202 -0.0477905 -0.4584
                CHANNELS 3 Zrotation Xrotation Yrotation
                JOINT lPinky2
                {
                  OFFSET 1.82734 -0.647385 -0.700984
                  CHANNELS 3 Zrotation Xrotation Yrotation
                  End Site
                  {
                    OFFSET 1.69225 -0.51767 -0.607171
                  }
                }
              }
            }
          }
        }
      }
    }
  }
  JOINT rButtock
  {
    OFFSET -8.77824 4.35084 1.2192
    CHANNELS 3 Zrotation Xrotation Yrotation
    JOINT rThigh
    {
      OFFSET 0 -1.70687 -2.19456
      CHANNELS 3 Zrotation Xrotation Yrotation
      JOINT rShin
      {
        OFFSET 0 -36.8199 0.73152
        CHANNELS 3 Zrotation Xrotation Yrotation
        JOINT rFoot
        {
          OFFSET 0.73152 -45.1104 -5.12064
          CHANNELS 3 Zrotation Xrotation Yrotation
          End Site
          {
            OFFSET -1.1221 -3.69964 12.103
          }
        }
      }
    }
  }
  JOINT lButtock
  {
    OFFSET 8.77824 4.35084 1.2192
    CHANNELS 3 Zrotation Xrotation Yrotation
    JOINT lThigh
    {
      OFFSET 0 -1.70687 -2.19456
      CHANNELS 3 Zrotation Xrotation Yrotation
      JOINT lShin
      {
        OFFSET 0 -36.8199 0.73152
        CHANNELS 3 Zrotation Xrotation Yrotation
        JOINT lFoot
        {
          OFFSET -0.73152 -45.1104 -5.12064
          CHANNELS 3 Zrotation Xrotation Yrotation
          End Site
          {
            OFFSET 1.1221 -3.69964 12.103
          }
        }
      }
    }
  }
}
MOTION
Frames:	4
Frame Time:	0.00833333
-221.621 83.185 11.6875 2.38044 0.0111361 -0.0455969 -3.13117 0.00208553 -0.0845021 -0.86322 0.0181965 -0.14933 -4.65617e-014 -1.59028e-015 7.95139e-016 -1.40373e-013 -6.36111e-015 2.28447e-015 -0 0 0 -0 0 0 -2.40061e-014 -1.28123e-016 5.46658e-016 -4.87946e-013 -2.6339e-015 7.55382e-015 -8.42012e-012 2.42855e-012 2.35361e-013 -9.6476e-011 -3.01743e-012 1.55211e-012 -2.27542e-010 -1.27907e-012 3.89936e-012 -3.92963e-010 -2.2073e-012 6.73801e-012 -2.27533e-010 -1.27381e-012 3.88982e-012 7.73091 5.47488 0.417314 -2.27541e-010 -1.27868e-012 3.89936e-012 2.90554 0.965183 0.102902 -2.2752e-010 -1.27739e-012 3.89618e-012 10.2786 0.731801 0.0259123 -2.27546e-010 -1.28017e-012 3.9089e-012 2.22167 -0.733487 -0.20892 -2.4002e-014 -1.32005e-016 1.98785e-016 -4.93941e-013 -2.4289e-015 5.96354e-015 -8.44358e-012 -2.60507e-012 2.54444e-013 -9.64501e-011 2.02273e-012 1.53939e-012 -2.27537e-010 -1.26968e-012 3.91526e-012 -3.92937e-010 -2.1914e-012 6.76822e-012 -2.27546e-010 -1.26427e-012 3.92162e-012 -7.73091 5.47488 -0.417314 -2.27539e-010 -1.26884e-012 3.9089e-012 -2.90554 0.965183 -0.102902 -2.27556e-010 -1.26854e-012 3.91367e-012 -10.2786 0.731801 -0.0259123 -2.2754e-010 -1.27063e-012 3.9089e-012 -2.22167 -0.733487 0.20892 -2.03217e-016 0 -3.88251e-019 -1.91921 -1.93503 0.0146316 -0.00849754 -2.07867 -0.0697338 -0.458212 4.00011 0.132392 2.03217e-016 0 3.88251e-019 -2.83865 -9.32621 0.32239 -0.0090222 11.3078 -0.235055 0.527803 -1.99506 -0.0184053 
-216.867 80.3088 6.7044 3.06624 2.85509 20.1457 -5.46155 7.6713 1.3475 0.632486 0.0138874 0.145896 -3.50212 4.7672 -0.819375 7.88669 -17.0792 2.89276 -0 0 0 -0 0 0 -1.08864e-013 3.45177e-013 1.71644e-013 17.893 -2.24205 3.01137 -12.5429 -9.52729 13.6807 0.0131058 -2.61361 -0.366101 2.61462e-010 1.0366e-009 -5.87818e-010 4.55115e-010 1.76755e-009 -1.00694e-009 2.6147e-010 1.0366e-009 -5.87824e-010 7.73091 5.47488 0.417314 2.61462e-010 1.0366e-009 -5.87815e-010 2.90554 0.965183 0.102902 2.6148e-010 1.0366e-009 -5.87818e-010 10.2786 0.731801 0.0259123 2.6146e-010 1.0366e-009 -5.87805e-010 2.22167 -0.733487 -0.20892 -1.08861e-013 3.45174e-013 1.71323e-013 -17.9103 11.6467 0.113747 11.4995 -8.41125 -13.1832 -0.0295302 -3.9673 0.553551 1.55513e-010 2.53794e-012 2.76268e-010 2.63405e-010 3.52082e-012 4.80797e-010 1.55502e-010 2.5434e-012 2.76275e-010 -7.73091 5.47488 -0.417314 1.55512e-010 2.53976e-012 2.76263e-010 -2.90554 0.965183 -0.102902 1.55499e-010 2.54069e-012 2.76268e-010 -10.2786 0.731801 -0.0259123 1.5551e-010 2.53962e-012 2.76262e-010 -2.22167 -0.733487 0.20892 -2.03217e-016 0 -3.88251e-019 -2.68074 -15.4289 -2.77173 -0.0114347 23.8298 0.276554 -0.581842 0.446275 -0.925005 2.03217e-016 0 3.88251e-019 -0.243562 -13.4358 0.594052 -0.0247872 22.533 -0.433903 0.693119 -0.419475 2.86722 
-215.489 80.9678 7.59849 1.82592 4.75016 41.6345 -8.37756 15.7815 2.95206 2.23684 -0.00536895 0.457894 -7.06699 9.82824 -1.7115 18.4787 -35.009 6.94048 -0 0 0 -0 0 0 -1.97706e-013 6.98027e-013 3.527e-013 37.0249 -4.55176 6.25062 -20.8451 -17.7537 29.2632 -0.00981692 -5.30474 -0.745736 7.72114e-010 2.13513e-009 -1.21586e-009 1.34073e-009 3.64187e-009 -2.08303e-009 7.72119e-010 2.13513e-009 -1.21586e-009 7.73091 5.47488 0.417314 7.72112e-010 2.13514e-009 -1.21585e-009 2.90554 0.965183 0.102902 7.72126e-010 2.13514e-009 -1.21586e-009 10.2786 0.731801 0.0259123 7.72113e-010 2.13514e-009 -1.21584e-009 2.22167 -0.733487 -0.20892 -1.97702e-013 6.98024e-013 3.52408e-013 -36.9344 23.9581 0.204175 19.4577 -15.7872 -27.9576 0.0244758 -8.03213 1.13022 5.59672e-010 4.55886e-012 5.57558e-010 9.56211e-010 6.10706e-012 9.70296e-010 5.59659e-010 4.56442e-012 5.57566e-010 -7.73091 5.47488 -0.417314 5.59671e-010 4.56178e-012 5.57553e-010 -2.90554 0.965183 -0.102902 5.59662e-010 4.56343e-012 5.57559e-010 -10.2786 0.731801 -0.0259123 5.59669e-010 4.56343e-012 5.57552e-010 -2.22167 -0.733487 0.20892 -2.03217e-016 0 -3.88251e-019 -5.1289 -29.5671 -6.35447 -0.528804 51.2453 0.94984 -0.855532 -3.30839 -2.05132 2.03217e-016 0 3.88251e-019 2.5199 -17.8277 0.887593 0.0640322 34.4029 -0.702505 0.696968 1.21703 5.9116 
-214.07 81.8474 8.44622 -0.354234 4.47373 60.7605 -11.3541 22.9514 4.53499 3.62403 0.00526886 0.736349 -10.0864 14.2897 -2.52788 31.3177 -50.557 13.1259 -0 0 0 -0 0 0 -2.78579e-013 1.03579e-012 5.13837e-013 54.387 -6.65164 9.08888 -24.4633 -21.9307 44.396 -0.0616815 -7.83954 -1.10751 1.23947e-009 3.11234e-009 -1.77125e-009 2.15127e-009 5.30707e-009 -3.0343e-009 1.23947e-009 3.11234e-009 -1.77125e-009 7.73091 5.47488 0.417314 1.23947e-009 3.11235e-009 -1.77124e-009 2.90554 0.965183 0.102902 1.23948e-009 3.11235e-009 -1.77125e-009 10.2786 0.731801 0.0259123 1.23947e-009 3.11235e-009 -1.77123e-009 2.22167 -0.733487 -0.20892 -2.78579e-013 1.03579e-012 5.13571e-013 -53.8955 34.9395 0.407701 23.3484 -19.8147 -42.1138 0.145647 -11.8974 1.69305 9.21613e-010 1.01532e-011 8.20974e-010 1.57609e-009 1.49453e-011 1.42885e-009 9.21599e-010 1.01587e-011 8.20982e-010 -7.73091 5.47488 -0.417314 9.21613e-010 1.0157e-011 8.2097e-010 -2.90554 0.965183 -0.102902 9.21608e-010 1.01592e-011 8.20976e-010 -10.2786 0.731801 -0.0259123 9.21611e-010 1.01601e-011 8.20967e-010 -2.22167 -0.733487 0.20892 -2.03217e-016 0 -3.88251e-019 -9.28839 -41.9544 -10.8464 -3.19339 75.62 3.61933 -1.22394 -6.65183 -3.05968 2.03217e-016 0 3.88251e-019 5.07261 -21.6526 1.18042 0.277919 44.9802 -1.0481 0.549089 2.69912 8.64789 
